<svg width="200" height="200" xmlns="http://www.w3.org/2000/svg">

 <g>
  <title>background</title>
  <rect fill="none" id="canvas_background" height="202" width="202" y="-1" x="-1"/>
 </g>
 <g>
  <title>Layer 1</title>
  <g stroke="null" id="svg_1">
   <g stroke="null" id="svg_2">
    <path stroke="null" id="svg_3" d="m195.398267,109.091811c-2.490114,-1.625244 -6.652163,-1.929839 -10.153886,2.576824c-0.862647,1.109435 -2.619067,2.636853 -4.77346,4.068669l0,-14.580509c0,-0.815957 -0.446887,-1.567438 -1.167241,-1.956518l-17.230702,-9.297909c-0.655878,-0.355731 -1.454049,-0.355731 -2.109927,0l-17.230702,9.297909c-0.720355,0.38908 -1.167241,1.140561 -1.167241,1.956518l0,13.2065c-4.088679,-0.764821 -8.766537,-1.165018 -14.220332,-1.165018c-8.666488,0 -11.312234,-6.407598 -12.7107,-12.766283c11.223301,-10.020487 15.125222,-27.996001 16.465882,-40.255368c0.962696,-8.811003 1.394019,-16.565931 0.680335,-23.124714c-0.284585,-11.285554 -6.427608,-26.461912 -37.436202,-26.461912c-25.948326,0 -34.225733,10.629676 -36.251175,20.712416c-1.949849,7.608189 -1.616351,17.324082 -0.353507,28.874211c1.34066,12.259367 5.240357,30.237104 16.465882,40.257591c-1.291747,5.871779 -3.657356,11.770237 -10.829774,12.644001c4.546682,2.994807 8.570885,6.716639 11.914753,10.996523c5.135861,4.82682 11.272214,9.66031 16.428085,11.03432l-5.584971,9.393512c-0.43577,-0.277915 -0.984929,-0.638092 -1.580778,-1.038289c0.342391,1.476282 0.618082,2.974797 0.82485,4.497769c0.242341,0.146739 0.420207,0.251235 0.480236,0.289031l1.429592,0.833744l2.992584,-5.031365l0.88488,1.080532l-4.464419,11.616828l8.030619,0l7.405867,0l-4.073116,-11.325574l0.758151,-0.927123l2.728009,4.586702l1.429592,-0.835967c0.89155,-0.520256 21.904114,-12.935255 25.972783,-27.591357l0.246788,-0.88488l-1.940955,-2.129937c0.031126,0 0.055583,0.004447 0.086709,0.004447c5.591641,0 10.249489,0.437993 14.220332,1.26062l0,0.849307c0,0.815957 0.446887,1.567438 1.167241,1.956518c-0.00667,-0.004447 -0.011117,-0.011117 -0.02001,-0.01334c-2.072131,0.633645 -3.90859,1.440709 -5.324843,2.481221c-3.065953,2.256666 -5.333736,5.380426 -6.994554,9.722563c-0.689228,2.350045 -1.358446,4.857946 -2.014325,7.40142l-3.868571,-1.024949c-1.145008,-0.300148 -2.305579,0.331274 -2.676873,1.440709l-11.223301,33.389766c-0.391304,1.162795 0.235672,2.423415 1.400689,2.816942c1.165018,0.393527 2.425638,-0.233448 2.816942,-1.400689l6.347568,-18.88485c0.124506,0.055583 0.233448,0.137846 0.371294,0.171195l25.752674,6.11412c0.002223,0 0.004447,0 0.00667,0l-1.009386,14.331498c-0.086709,1.225047 0.835967,2.287793 2.061014,2.372279c0.051136,0.004447 0.106719,0.00667 0.157855,0.00667c1.158348,0 2.13216,-0.893773 2.214423,-2.067684l1.645254,-23.313696l1.262844,-11.594595c0.011117,-0.102273 0.015563,-0.108943 0.011117,-0.208992c0.04669,-0.642538 0.976036,-1.727517 4.150932,-1.727517l14.731695,0c5.667234,0 17.54419,-10.856454 20.62793,-15.289747c2.445648,-3.515063 4.106465,-6.440948 4.875733,-7.874987c1.70306,-3.166003 0.522479,-7.412537 -2.636853,-9.469105zm-133.241131,-49.402091c-0.431323,-3.937493 -0.718131,-7.472567 -0.873763,-10.678589c29.174358,-0.411314 46.711879,-10.878687 54.531283,-17.046167c0.00667,0.004447 0.01334,0.011117 0.02001,0.015563c0.93824,-0.849307 1.938732,-1.952072 2.565707,-3.257159l-0.86487,4.488876c4.708984,3.761851 8.072862,9.973798 10.06273,14.573839c-0.133399,3.523957 -0.43577,7.45478 -0.922676,11.90586c-3.128206,28.618529 -14.284808,43.743751 -32.260322,43.743751c-17.977737,-0.002223 -29.132115,-15.129668 -32.258098,-43.745974zm32.258098,72.466776c-5.676127,0 -15.581002,-8.633138 -23.502678,-17.275169c4.419953,-3.11042 6.271976,-8.144008 7.161302,-11.536789c4.446633,2.825835 9.820389,4.533342 16.341376,4.533342c6.520987,0 11.894743,-1.70973 16.341376,-4.535566c0.889327,3.390558 2.741349,8.426369 7.161302,11.536789c-7.919453,8.642031 -17.826551,17.277392 -23.502678,17.277392zm8.2863,12.337183l-1.631914,-2.745796l0.095603,-0.117836l-0.553606,-0.651432l-3.49283,-5.874002c8.070639,-2.15217 18.562469,-12.786293 23.822836,-18.591372c0.311264,0.122282 0.651432,0.215662 0.980483,0.317934l3.548413,3.799648c-3.644016,10.95428 -18.164495,20.925854 -22.768984,23.862855zm58.313144,-50.109106l12.68402,6.843368l-12.641777,7.299148l-12.681797,-7.321381l12.639554,-6.821135zm15.007386,9.351269l0,14.691675l-13.339899,7.199099l0,-14.186982l13.339899,-7.703791zm-30.014772,-0.04669l13.339899,7.701568l0,14.235895l-13.339899,-7.199099l0,-14.738365zm1.614128,55.740767l-25.047883,-5.947371l-0.004447,0l2.814719,-8.377456l22.82012,6.042974l-0.582509,8.281854zm46.500664,-42.983377c-0.727024,1.349553 -2.294463,4.113135 -4.615605,7.445887c-3.203799,4.608935 -13.893504,13.384365 -16.977244,13.384365l-14.731695,0c-3.10375,0 -5.447125,0.791501 -6.967874,2.356715c-1.400689,1.440709 -1.605234,3.028157 -1.625244,3.646239l-0.373517,3.437247l-16.161287,-4.277661c0.631422,-2.447871 1.27396,-4.86017 1.934285,-7.114613c1.305087,-3.399451 3.025934,-5.800633 5.420446,-7.561499c1.760867,-1.296193 4.633391,-2.254443 8.579778,-2.879195l11.358924,6.129683c0.326828,0.177865 0.693675,0.266798 1.056075,0.266798s0.727024,-0.088933 1.056075,-0.266798l17.230702,-9.300133c0.220108,-0.117836 0.404644,-0.280138 0.569169,-0.458003c3.997523,-2.101034 7.365847,-4.902413 8.882149,-6.852261c0.835967,-1.073862 2.494561,-2.707999 4.217631,-1.585225c1.084978,0.707015 1.825343,2.372279 1.147231,3.628452z" fill="#1c81a4"/>
    <path stroke="null" id="svg_4" d="m90.777888,60.283345c0.909336,-0.520256 2.501231,-0.771491 3.5662,-0.771491c0.02001,0 0.037796,0 0.05336,0l0.017787,-1.687497l0.02001,1.687497c0.729248,-0.022233 2.58127,0.171195 3.612889,0.733694c0.380187,7.419207 5.084725,12.185997 12.277153,12.185997c7.652655,0 12.795186,-5.095841 12.795186,-12.68402c0,-5.384872 -2.888088,-5.642777 -12.014802,-5.642777c-7.674888,0 -11.361147,0.011117 -12.610651,2.492338c-1.820896,-0.613635 -3.681812,-0.653655 -4.057553,-0.644762l0,0c-0.335721,-0.011117 -2.249996,0.01334 -4.104242,0.640315c-1.251727,-2.476775 -4.937986,-2.487891 -12.608428,-2.487891c-9.128937,0 -12.017025,0.257905 -12.017025,5.642777c0,7.588179 5.140308,12.68402 12.795186,12.68402c7.181312,-0.002223 11.87918,-4.751227 12.27493,-12.148201zm10.876464,-2.018771c0.555829,-0.600295 5.078055,-0.600295 9.451318,-0.600295c2.096587,0 7.670442,0 8.348553,0.649208c0.106719,0.193429 0.106719,1.062745 0.106719,1.431816c0,5.627214 -3.53952,9.124491 -9.233433,9.124491c-5.504932,0 -8.78877,-3.577316 -8.78877,-9.569154c0,-0.842637 0.104496,-1.020502 0.115612,-1.036065zm-32.384827,1.480729c0,-0.371294 0,-1.238387 0.093379,-1.416253c0.691451,-0.666995 6.263082,-0.666995 8.364116,-0.666995c4.373263,0 8.895489,0 9.449095,0.598072c0.01334,0.017787 0.120059,0.195652 0.120059,1.038289c0,5.991838 -3.288285,9.569154 -8.790993,9.569154c-5.696137,0.002223 -9.235657,-3.495053 -9.235657,-9.122267z" fill="#41b883"/>
   </g>
   <path stroke="null" id="svg_5" d="m76.839917,170.068488c-0.300148,-1.189474 -1.514079,-1.905382 -2.696883,-1.620798l-8.599788,2.1455c2.612397,-4.8535 4.00197,-10.318412 4.00197,-15.86114c0,-18.477983 -15.031843,-33.507602 -33.507602,-33.507602s-33.507602,15.031843 -33.507602,33.509826c0,18.47576 15.031843,33.505379 33.507602,33.505379c4.817927,0 9.471328,-1.000492 13.829028,-2.977021c1.118328,-0.509139 1.614128,-1.825343 1.107212,-2.943671c-0.509139,-1.118328 -1.823119,-1.616351 -2.943671,-1.107212c-3.775191,1.714177 -7.812734,2.58127 -11.992569,2.58127c-16.025665,0 -29.060969,-13.035304 -29.060969,-29.058746c0,-4.282107 0.953803,-8.337437 2.623513,-11.999239c0.413537,2.496784 1.554098,4.895743 3.477267,6.818912c2.452318,2.452318 5.67168,3.677365 8.891042,3.677365s6.438724,-1.227271 8.891042,-3.677365c4.900189,-4.902413 4.900189,-12.879672 0,-17.779862c-1.876479,-1.876479 -4.246534,-3.054837 -6.812242,-3.481714c3.661802,-1.667487 7.712685,-2.619067 11.990346,-2.619067c16.025665,0 29.060969,13.035304 29.060969,29.060969c0,4.966889 -1.276184,9.871525 -3.688482,14.182536c-0.00667,0.011117 -0.004447,0.022233 -0.011117,0.031126l-2.390065,-9.591387c-0.300148,-1.189474 -1.509632,-1.907606 -2.696883,-1.620798c-1.189474,0.297924 -1.914275,1.505185 -1.620798,2.696883l3.55953,14.271468c0.253458,1.009386 1.158348,1.685274 2.156617,1.685274c0.177865,0 0.360177,-0.022233 0.540266,-0.064476l14.271468,-3.55953c1.191698,-0.297924 1.916499,-1.505185 1.620798,-2.696883zm-49.124177,-23.65831c-3.0704,3.0704 -8.424146,3.0704 -11.494546,0c-3.168226,-3.170449 -3.168226,-8.324097 0,-11.492323c1.534088,-1.534088 3.575093,-2.381172 5.747273,-2.381172s4.213185,0.847084 5.747273,2.381172c3.168226,3.168226 3.168226,8.321873 0,11.492323z" fill="#41b883"/>
   <text stroke="null" transform="matrix(2.2233164485066332,0,0,2.2233164485066332,-10.764928517317726,-17.848187476964938) " id="svg_6" font-family="'Helvetica Neue', Helvetica, Arial-Unicode, Arial, Sans-serif" font-size="4px" fill="#666666" y="83.200886" x="14.449779">Scrum</text>
  </g>
 </g>
</svg>