<svg width="200" height="200" xmlns="http://www.w3.org/2000/svg" preserveAspectRatio="xMidYMid">
 <metadata id="metadata16">image/svg+xml</metadata>

 <g>
  <title>background</title>
  <rect x="-1" y="-1" width="202" height="202" id="canvas_background" fill="none"/>
 </g>
 <g>
  <title>Layer 1</title>
  <g id="g8" transform="matrix(0.6700103540378872,0,0,0.6700103540378872,40.778722791103874,-6.236970940943598) ">
   <path d="m165.188604,10.447464l51.2,0l-128,220.8l-128,-220.8l50.56,0l47.36,0l30.08,51.2l29.44,-51.2l47.36,0z" id="path2" fill="#41b883"/>
   <path d="m-39.611396,10.447464l128,220.8l128,-220.8l-51.2,0l-76.8,132.48l-77.44,-132.48l-50.56,0z" id="path4" fill="#41b883"/>
   <path d="m10.948604,10.447464l77.44,133.12l76.8,-133.12l-47.36,0l-29.44,51.2l-30.08,-51.2l-47.36,0z" id="path6" fill="#35495e"/>
  </g>
  <g id="text20" transform="matrix(0.5324072988285241,0,0,0.5324072988285241,32.329133884546366,38.565125394393135) " stroke-dashoffset="0" stroke-miterlimit="4" stroke-width="3.682211px" fill="#000000" text-anchor="end" font-family="Aileron" font-size="53.271626px" font-weight="normal" font-style="normal">
   <path d="m73.945995,288.952983l13.264634,-36.75743l-7.830929,0l-9.908522,31.11063l-9.748707,-31.11063l-7.990744,0l12.998276,36.75743l9.215992,0z" id="path12" stroke-width="3.682211px"/>
   <path d="m116.163759,260.612473l-7.35149,0l0,14.43661c0,6.3926 -2.55704,9.42908 -6.23278,9.42908c-3.40938,0 -5.11407,-1.86451 -5.48697,-4.79445c-0.15982,-1.43833 -0.21309,-2.98321 -0.21309,-3.88883l0,-15.18241l-7.351486,0l0,16.72729c0,2.29068 0.05327,3.72902 0.266359,5.16735c0.639259,3.88883 4.155186,7.19167 10.015067,7.19167c2.71685,0 4.74117,-0.53272 6.81877,-1.91778l2.18413,-3.62247l0,4.79445l7.35149,0l0,-28.34051z" id="path14" stroke-width="3.682211px"/>
   <path d="m148.616169,274.196743c0,-7.72439 -4.58136,-14.33007 -13.26464,-14.33007c-8.68327,0 -14.38334,6.33932 -14.38334,15.0226c0,9.96179 6.0197,14.80951 13.79735,14.80951c6.65896,0 11.98612,-3.35611 13.42445,-9.9618l-7.35148,0c-0.47945,3.03649 -2.77013,4.79445 -5.91315,4.79445c-3.40939,0 -6.07297,-1.86451 -6.55241,-7.83093l20.13667,0c0.10655,-0.95889 0.10655,-1.81123 0.10655,-2.50376zm-13.58427,-9.16272c3.51593,0 5.54025,2.39722 6.0197,6.87204l-12.46556,0c0.63925,-4.68791 3.03648,-6.87204 6.44586,-6.87204z" id="path16" stroke-width="3.682211px"/>
   <path d="m156.826659,280.749153c-2.61031,0 -4.42155,1.8645 -4.42155,4.47481c0,2.61031 1.81124,4.47482 4.42155,4.47482c2.66358,0 4.47481,-1.86451 4.47481,-4.47482c0,-2.61031 -1.81123,-4.47481 -4.47481,-4.47481z" id="path18" stroke-width="3.682211px"/>
   <path d="m170.205329,250.064693c-2.66358,0 -4.04865,1.33179 -4.04865,3.88883c0,2.55704 1.38507,3.88883 4.04865,3.88883c2.61031,0 3.99537,-1.33179 3.99537,-3.88883c0,-2.55704 -1.38506,-3.88883 -3.99537,-3.88883zm3.62247,10.54778l-7.29822,0l0,29.08631c0,0.79907 -0.0533,1.70469 -0.10654,2.45049c-0.26636,2.18414 -1.65142,2.87667 -4.84772,2.61031l0,5.22062c0.79908,0.10655 1.7047,0.15982 2.71686,0.15982c6.49913,0 9.05617,-2.66358 9.42907,-7.1384c0.0533,-0.95889 0.10655,-2.34395 0.10655,-3.40938l0,-28.97977z" id="path20" stroke-width="3.682211px"/>
   <path d="m190.649139,259.866673c-6.76549,0 -11.24031,3.30284 -11.24031,8.73654c0,4.90099 3.62247,7.19167 8.89636,8.52346c4.90099,1.22525 6.7655,2.4505 6.7655,4.63464c0,2.07759 -1.81124,3.08975 -4.15519,3.08975c-2.55704,0 -4.6879,-1.43833 -5.27389,-4.52809l-7.35148,0c0.79907,6.3926 5.64679,9.37581 12.51883,9.37581c6.49914,0 11.66648,-2.77013 11.66648,-8.47019c0,-5.22062 -3.40938,-7.56457 -9.21599,-9.05618c-4.6879,-1.17197 -6.44586,-2.29068 -6.44586,-4.42154c0,-1.75796 1.17197,-3.03648 3.35611,-3.03648c2.45049,0 3.88883,1.4916 4.36827,4.10191l7.35149,0c-0.63926,-5.16735 -4.47482,-8.94963 -11.24032,-8.94963z" id="path22" stroke-width="3.682211px"/>
  </g>
 </g>
</svg>