<?xml version="1.0" encoding="UTF-8" standalone="no"?>
<!-- Created with Inkscape (http://www.inkscape.org/) -->

<svg
   width="500"
   height="500"
   viewBox="0 0 132.29167 132.29166"
   version="1.1"
   id="svg5"
   inkscape:version="1.2 (dc2aeda, 2022-05-15)"
   sodipodi:docname="favicon.svg"
   xmlns:inkscape="http://www.inkscape.org/namespaces/inkscape"
   xmlns:sodipodi="http://sodipodi.sourceforge.net/DTD/sodipodi-0.dtd"
   xmlns="http://www.w3.org/2000/svg"
   xmlns:svg="http://www.w3.org/2000/svg">
  <sodipodi:namedview
     id="namedview7"
     pagecolor="#ffffff"
     bordercolor="#666666"
     borderopacity="1.0"
     inkscape:showpageshadow="false"
     inkscape:pageopacity="0.1254902"
     inkscape:pagecheckerboard="true"
     inkscape:deskcolor="#d1d1d1"
     inkscape:document-units="px"
     showgrid="false"
     showborder="false"
     borderlayer="false"
     shape-rendering="auto"
     showguides="true"
     inkscape:zoom="0.45950711"
     inkscape:cx="676.81216"
     inkscape:cy="180.62833"
     inkscape:window-width="3440"
     inkscape:window-height="1332"
     inkscape:window-x="0"
     inkscape:window-y="25"
     inkscape:window-maximized="0"
     inkscape:current-layer="g17241">
    <sodipodi:guide
       position="744.34298,570.41271"
       orientation="1,0"
       id="guide354"
       inkscape:locked="false" />
    <sodipodi:guide
       position="63.259004,66.085812"
       orientation="0,-1"
       id="guide2125"
       inkscape:locked="false" />
  </sodipodi:namedview>
  <defs
     id="defs2" />
  <g
     inkscape:label="Layer 1"
     inkscape:groupmode="layer"
     id="layer1">
    <g
       id="g17241">
      <path
         id="path1654-0-1-8"
         style="fill:#5793e2;fill-opacity:1;stroke-width:0.354338"
         d="M 66.145831,0 A 66.145828,66.145828 0 0 0 0,66.145831 66.145828,66.145828 0 0 0 66.145831,132.29166 66.145828,66.145828 0 0 0 132.29166,66.145831 66.145828,66.145828 0 0 0 92.656874,5.5505654 V 12.851928 A 59.53125,59.53125 0 0 1 125.67708,66.145831 59.53125,59.53125 0 0 1 66.145831,125.67708 59.53125,59.53125 0 0 1 6.6145831,66.145831 59.53125,59.53125 0 0 1 66.145831,6.6145831 59.53125,59.53125 0 0 1 76.063055,7.4827472 l 10e-4,58.7261288 c -0.03437,5.45384 -4.46431,9.857467 -9.918258,9.859347 -5.453945,-0.0019 -9.883886,-4.405507 -9.918257,-9.859347 h -6.6151 c 0.03472,9.106967 7.426324,16.471772 16.533357,16.473413 9.10784,-5.02e-4 16.500702,-7.36564 16.535425,-16.473413 l -0.0078,-63.7294409 h -0.001 V 2.0980631 A 66.145828,66.145828 0 0 0 66.145831,0 Z" />
      <path
         id="path1654-0-1-8-7"
         style="fill:#c8c8c8;fill-opacity:1;stroke-width:0.265753"
         d="m 66.085887,16.537491 c -27.374684,0.03308 -49.548878,22.233636 -49.549429,49.60834 3e-6,27.398498 22.210875,49.609369 49.609373,49.609369 27.398497,0 49.609369,-22.210872 49.609369,-49.609369 -0.005,-17.007805 -8.72275,-32.827401 -23.098326,-41.916303 v 8.071859 c 10.403946,8.148663 16.482516,20.629195 16.483746,33.844444 0,23.745366 -19.249423,42.994789 -42.994789,42.994789 -23.745367,0 -42.99479,-19.249422 -42.99479,-42.994789 5.46e-4,-23.721574 19.213295,-42.960685 42.934846,-42.993757 z"
         sodipodi:nodetypes="ccsccccsccc" />
      <path
         id="path1654-0-1-8-7-2"
         style="fill:#44d6c2;fill-opacity:1;stroke-width:0.177169"
         d="m 66.084853,33.075499 a 33.072914,33.072914 0 0 0 -33.00987,33.070849 33.072914,33.072914 0 0 0 0.0015,0.05839 h 6.6151 a 26.458332,26.458332 0 0 1 -0.0021,-0.05839 A 26.458332,26.458332 0 0 1 66.08477,39.690599 Z M 33.074983,66.208876 A 33.072914,33.072914 0 0 0 66.145831,99.218747 33.072914,33.072914 0 0 0 99.21823,66.208876 h -6.6151 A 26.458332,26.458332 0 0 1 66.145831,92.604164 26.458332,26.458332 0 0 1 39.690083,66.208876 Z" />
    </g>
  </g>
</svg>
