<svg width="200" height="200" xmlns="http://www.w3.org/2000/svg">
 <g>
  <title>background</title>
  <rect x="-1" y="-1" width="202" height="202" id="canvas_background" fill="none"/>
 </g>

 <g>
  <title>Layer 1</title>
  <g id="fond"/>
  <g id="compacte"/>
  <g id="rectangle"/>
  <g stroke="null" id="carré">
   <g stroke="null" id="svg_2">
    <g stroke="null" id="svg_3">
     <path stroke="null" d="m166.46285,69.910426c0,37.626853 -30.500151,68.129433 -68.125789,68.129433c-37.623209,0 -68.122145,-30.50258 -68.122145,-68.129433c0,-37.62078 30.497721,-68.119716 68.122145,-68.119716c37.625639,0 68.125789,30.498936 68.125789,68.119716z" id="svg_4"/>
     <path stroke="null" fill="#FFFFFF" d="m128.124177,26.995941c-6.920202,0.236868 -12.960955,4.057131 -17.459025,9.328972c-4.980311,5.788093 -8.28918,12.646345 -10.678515,19.654006c-4.268491,-3.500794 -7.55914,-8.030447 -14.411318,-10.000707c-5.29492,-1.522031 -10.854648,-0.895241 -15.968576,2.914089c-2.419702,1.808703 -4.089928,4.540586 -4.883134,7.116985c-2.055289,6.678475 2.159754,12.628124 4.074137,14.75994l4.187105,4.483494c0.861229,0.880665 2.942027,3.174037 1.9241,6.461042c-1.093239,3.57975 -5.406674,5.891343 -9.829432,4.532083c-1.976333,-0.60614 -4.813895,-2.077154 -4.177387,-4.145805c0.261163,-0.849082 0.868518,-1.48802 1.195275,-2.211987c0.296389,-0.632864 0.44094,-1.101742 0.532043,-1.384769c0.807782,-2.634706 -0.297604,-6.066261 -3.121804,-6.939638c-2.637135,-0.808997 -5.333791,-0.16763 -6.379656,3.225055c-1.186772,3.855489 0.659587,10.853433 10.544897,13.897496c11.582259,3.565174 21.37525,-2.74403 22.766093,-10.963971c0.875806,-5.149155 -1.451578,-8.979135 -5.710351,-13.897496l-3.472856,-3.842127c-2.101448,-2.100233 -2.822986,-5.681198 -0.64744,-8.432516c1.836641,-2.322525 4.450697,-3.311299 8.734979,-2.147607c6.255756,1.695735 9.041086,6.035893 13.690995,9.536687c-1.916812,6.3007 -3.174037,12.623265 -4.308576,18.292316l-0.697243,4.228405c-3.323446,17.433516 -5.86219,27.009074 -12.458065,32.505637c-1.328893,0.946259 -3.228699,2.360181 -6.090555,2.462217c-1.503811,0.044944 -1.98848,-0.988774 -2.00913,-1.440646c-0.032797,-1.050724 0.853941,-1.535393 1.443075,-2.006701c0.883094,-0.481025 2.215631,-1.27909 2.123313,-3.833624c-0.094747,-3.017339 -2.595835,-5.635039 -6.208382,-5.515998c-2.707588,0.091103 -6.832743,2.637135 -6.67726,7.301621c0.159127,4.818754 4.648695,8.427657 11.419488,8.199292c3.618621,-0.1239 11.7013,-1.593699 19.663724,-11.059934c9.269451,-10.853433 11.862857,-23.292062 13.813681,-32.397527l2.177975,-12.021984c1.204992,0.14455 2.501088,0.242942 3.907722,0.276954c11.544603,0.244157 17.316904,-5.733431 17.404363,-10.084521c0.059521,-2.632276 -1.724888,-5.225682 -4.225976,-5.163732c-1.786838,0.049803 -4.032837,1.241434 -4.569739,3.713368c-0.529614,2.423346 3.672068,4.613468 0.388707,6.745284c-2.332243,1.50867 -6.51206,2.570326 -12.400973,1.709097l1.070159,-5.918067c2.185263,-11.22149 4.880704,-25.023024 15.106132,-25.360713c0.747047,-0.035227 3.470426,0.031582 3.534806,1.836641c0.017006,0.598852 -0.132403,0.756764 -0.836935,2.134245c-0.719108,1.073804 -0.988774,1.992124 -0.953547,3.041634c0.097177,2.861856 2.275152,4.747086 5.430968,4.637762c4.218687,-0.140906 5.428538,-4.246626 5.3593,-6.356577c-0.177348,-4.96209 -5.404244,-8.096041 -12.317158,-7.867676z" id="svg_5"/>
    </g>
    <g stroke="null" id="svg_6">
     <g stroke="null" id="svg_7">
      <path stroke="null" d="m123.62975,166.403336c6.880117,0 11.497229,4.973022 11.497229,11.85071c0,6.484121 -4.704571,11.853139 -11.497229,11.853139c-6.835173,0 -11.542173,-5.369018 -11.542173,-11.853139c0.001215,-6.877687 4.617112,-11.85071 11.542173,-11.85071zm0,20.331814c4.880704,0 7.05625,-4.43855 7.05625,-8.481104c0,-4.303717 -2.616485,-8.47746 -7.05625,-8.47746c-4.481065,0 -7.101194,4.173743 -7.101194,8.47746c0.001215,4.042555 2.174331,8.481104 7.101194,8.481104z" id="svg_8"/>
     </g>
     <path stroke="null" d="m111.516663,168.509643l0,-1.575479l-5.993379,0l0,-2.151251c0,-3.062284 0.443369,-5.373877 4.037696,-5.373877c0.069238,0 0.137262,0.004859 0.206501,0.007288c0.007288,0 0.007288,-0.009718 0.017006,-0.009718c0.993633,0.074097 1.824494,-0.739758 1.881586,-1.737035l0.074097,-1.366549c-0.844223,-0.134833 -1.734606,-0.268451 -2.797477,-0.268451c-6.168297,0 -7.589507,3.596756 -7.589507,9.103036l0,1.796556l-5.328932,0l0,1.757685c0.134833,0.911032 0.915891,1.613135 1.867009,1.613135c0.004859,0 0.009718,0.004859 0.014577,0.004859l3.447347,0l0,19.264084l2.299446,0c0.004859,0 0.002429,-0.002429 0.007288,-0.002429c0.953547,0 1.737035,-0.714249 1.86458,-1.635l0,-17.62787l4.173743,0c0.98513,-0.031582 1.773476,-0.816285 1.818421,-1.798985z" id="svg_9"/>
     <path stroke="null" d="m55.936398,166.934164c-0.008503,0 -0.012147,0.004859 -0.021865,0.004859c-0.880665,0 -1.732176,0.604926 -2.102663,1.421211l-5.743148,17.309616l-0.088674,0l-5.615604,-17.299898c-0.366842,-0.821144 -1.223213,-1.430928 -2.107522,-1.430928c-0.008503,0 -0.012147,-0.004859 -0.021865,-0.004859l-2.90923,0l7.679396,21.131093c0.268451,0.754335 0.800494,1.909524 0.800494,2.396623c0,0.443369 -1.243863,5.593739 -4.974237,5.593739c-0.092318,0 -0.184636,-0.009718 -0.276954,-0.017006c-0.951118,-0.052233 -1.670226,0.612214 -1.830568,1.635l-0.112968,1.44429c0.754335,0.132403 1.511099,0.310966 2.843636,0.310966c5.502636,0 7.146138,-5.017967 8.699752,-9.366628l8.346272,-23.129291l-2.564253,0l0,0.001215z" id="svg_10"/>
     <path stroke="null" d="m29.409563,171.53427c-3.447347,-1.762544 -7.216591,-2.961463 -7.2834,-6.507201c0.010932,-3.770459 3.472856,-4.759233 6.141573,-4.754375c0.010932,-0.002429 0.023079,-0.002429 0.027938,-0.002429c1.158833,0 2.085657,0.114183 2.989401,0.313395c0.013362,0 0.010932,-0.014577 0.025509,-0.014577c0.955977,0.069238 1.757685,-0.679023 1.871868,-1.620423l0.075312,-1.368978c-1.747968,-0.433651 -3.577321,-0.654729 -5.167376,-0.654729c-5.802669,0.035227 -10.108816,2.956604 -10.123392,8.524834c0.007288,4.870987 3.290649,6.756216 6.819381,8.467743c3.463138,1.662938 7.254247,3.039204 7.287045,7.05625c-0.021865,4.194393 -4.066849,5.741934 -6.855823,5.745578c-1.631355,-0.004859 -3.402402,-0.413001 -4.892851,-0.883094c-0.935327,-0.154268 -1.701809,0.671735 -1.822065,1.762544l-0.12633,1.219569c2.05043,0.664446 4.153093,1.240219 6.266688,1.240219c0,0 0.002429,0 0.006074,0c0.006074,0 0.010932,0 0.02065,0c6.498698,-0.047374 11.548247,-2.63835 11.567682,-9.366628c-0.009718,-5.192885 -3.313729,-7.37086 -6.827884,-9.157698z" id="svg_11"/>
     <path stroke="null" d="m92.522245,189.575142c0.002429,0 0.002429,-0.002429 0.004859,-0.002429c0.901315,0 1.650791,-0.62922 1.84393,-1.475873l0,-13.036267c0,-4.928078 -2.085657,-8.657237 -7.860388,-8.657237c-2.040713,0 -5.456477,1.155189 -7.010091,4.396035c-1.200133,-3.064713 -3.817833,-4.396035 -6.436748,-4.396035c-3.330735,0 -5.593739,1.197704 -7.189868,3.817833l-0.089889,0l0,-1.406634c-0.014577,-1.037362 -0.851512,-1.874297 -1.891303,-1.874297c-0.007288,0 -0.012147,-0.004859 -0.019435,-0.004859l-1.996983,0l0,22.640978l2.25936,0c0.002429,0 0.002429,-0.002429 0.004859,-0.002429c1.045865,0 1.893733,-0.846653 1.893733,-1.891303c0,-0.027938 0.009718,-0.040085 0.015791,-0.059521l0,-9.454087c0,-4.218687 1.684803,-8.391216 5.946005,-8.391216c3.373249,0 4.042555,3.506867 4.042555,6.30313l0,13.494212l2.289728,0c0.002429,0 0.002429,-0.002429 0.007288,-0.002429c0.986344,0 1.786838,-0.756764 1.874297,-1.720029l0,-9.684882c0,-4.218687 1.687232,-8.391216 5.94722,-8.391216c3.373249,0 4.040125,3.506867 4.040125,6.30313l0,13.494212l2.324955,0l0,0.001215z" id="svg_12"/>
     <path stroke="null" d="m157.003904,189.575142c0.004859,0 0.004859,-0.002429 0.007288,-0.002429c1.015497,0 1.836641,-0.801709 1.884015,-1.805059l0,-11.64178c0,-6.080838 -2.621344,-9.722538 -8.481104,-9.722538c-3.150957,0 -6.165867,1.553614 -7.41216,4.130014l-0.087459,0l0,-1.692091c0,-0.002429 -0.004859,-0.002429 -0.004859,-0.007288c0,-1.045865 -0.846653,-1.896162 -1.891303,-1.896162c-0.009718,0 -0.014577,-0.004859 -0.021865,-0.004859l-2.125742,0l0,22.640978l2.294587,0c0,0 0,-0.002429 0.004859,-0.002429c0.991203,0 1.797771,-0.768911 1.876727,-1.741894l0,-8.732549c0,-5.501421 2.133031,-9.321684 6.880117,-9.321684c3.6417,0.223507 4.792031,2.797477 4.792031,8.077821l0,11.719521l2.284869,0l0,0.002429z" id="svg_13"/>
     <path stroke="null" d="m179.46632,166.934164c-0.007288,0 -0.009718,0.004859 -0.021865,0.004859c-0.878235,0 -1.732176,0.604926 -2.101448,1.421211l-5.739504,17.309616l-0.092318,0l-5.615604,-17.299898c-0.368057,-0.821144 -1.224428,-1.430928 -2.108736,-1.430928c-0.007288,0 -0.012147,-0.004859 -0.019435,-0.004859l-2.90923,0l7.679396,21.131093c0.266021,0.754335 0.801709,1.909524 0.801709,2.396623c0,0.443369 -1.245078,5.593739 -4.975452,5.593739c-0.092318,0 -0.184636,-0.009718 -0.278169,-0.017006c-0.948688,-0.052233 -1.667797,0.612214 -1.829353,1.635l-0.111753,1.44429c0.754335,0.132403 1.511099,0.310966 2.839992,0.310966c5.50628,0 7.148568,-5.017967 8.702182,-9.366628l8.346272,-23.129291l-2.566682,0l0,0.001215z" id="svg_14"/>
    </g>
   </g>
  </g>
 </g>
</svg>